# This file uses centimeters as units for non-parametric coordinates.

mtllib board.mtl
g default
v -3.240300 2.018644 7.983341
v -3.336884 2.115228 8.079925
v 3.336884 2.115228 8.079925
v 3.240300 2.018644 7.983341
v -3.336884 2.308435 8.079925
v -3.240300 2.405018 7.983341
v 3.240300 2.405018 7.983341
v 3.336884 2.308435 8.079925
v -3.240300 2.405018 -7.983341
v -3.336884 2.308435 -8.079925
v 3.240300 2.405018 -7.983341
v 3.336884 2.308435 -8.079925
v -3.336884 2.115228 -8.079925
v -3.240300 2.018644 -7.983341
v 3.240300 2.018644 -7.983341
v 3.336884 2.115228 -8.079925
vt 0.378618 0.998506
vt 0.375000 1.000000
vt 0.378618 0.000000
vt 0.621382 0.000000
vt 0.625000 1.000000
vt 0.621382 0.998506
vt 0.625000 0.687506
vt 0.375000 0.562494
vt 0.378618 0.498506
vt 0.621382 0.751494
vt 0.625000 0.062494
vt 0.375000 0.187506
vt 0.378618 0.251494
vt 0.621382 0.251494
vt 0.621382 0.498506
vt 0.625000 0.562494
vt 0.375000 0.687506
vt 0.378618 0.751494
vt 0.875000 0.062494
vt 0.875000 0.187506
vt 0.625000 0.187506
vt 0.125000 0.062494
vt 0.375000 0.062494
vt 0.125000 0.187506
vn -0.707107 -0.707107 0.000000
vn -0.707107 -0.707107 0.000000
vn -0.707107 -0.707107 0.000000
vn -0.707107 -0.707107 0.000000
vn 0.000000 -0.707106 0.707107
vn 0.000000 -0.707106 0.707107
vn 0.000000 -0.707106 0.707107
vn 0.000000 -0.707106 0.707107
vn 0.707107 -0.707107 0.000000
vn 0.707107 -0.707107 0.000000
vn 0.707107 -0.707107 0.000000
vn 0.707107 -0.707107 0.000000
vn -0.707107 0.707107 0.000000
vn -0.707107 0.707107 0.000000
vn -0.707107 0.707107 0.000000
vn -0.707107 0.707107 0.000000
vn 0.000000 0.707106 0.707107
vn 0.000000 0.707106 0.707107
vn 0.000000 0.707106 0.707107
vn 0.000000 0.707106 0.707107
vn 0.707107 0.707107 0.000000
vn 0.707107 0.707107 0.000000
vn 0.707107 0.707107 0.000000
vn 0.707107 0.707107 0.000000
vn 0.000000 0.707106 -0.707107
vn 0.000000 0.707106 -0.707107
vn 0.000000 0.707106 -0.707107
vn 0.000000 0.707106 -0.707107
vn 0.000000 -0.707106 -0.707107
vn 0.000000 -0.707106 -0.707107
vn 0.000000 -0.707106 -0.707107
vn 0.000000 -0.707106 -0.707107
vn 0.000000 0.000000 1.000000
vn 0.000000 0.000000 1.000000
vn 0.000000 0.000000 1.000000
vn 0.000000 0.000000 1.000000
vn 0.000000 1.000000 0.000000
vn 0.000000 1.000000 0.000000
vn 0.000000 1.000000 0.000000
vn 0.000000 1.000000 0.000000
vn 0.000000 0.000000 -1.000000
vn 0.000000 0.000000 -1.000000
vn 0.000000 0.000000 -1.000000
vn 0.000000 0.000000 -1.000000
vn 0.000000 -1.000000 0.000000
vn 0.000000 -1.000000 0.000000
vn 0.000000 -1.000000 0.000000
vn 0.000000 -1.000000 0.000000
vn 1.000000 0.000000 0.000000
vn 1.000000 0.000000 0.000000
vn 1.000000 0.000000 0.000000
vn 1.000000 0.000000 0.000000
vn -1.000000 0.000000 0.000000
vn -1.000000 0.000000 0.000000
vn -1.000000 0.000000 0.000000
vn -1.000000 0.000000 0.000000
s off
g pCube1
usemtl initialShadingGroup
f 1/1/1 2/2/2 13/17/3 14/18/4
f 2/23/5 1/3/6 4/4/7 3/11/8
f 3/5/9 4/6/10 15/10/11 16/7/12
f 5/12/13 6/13/14 9/9/15 10/8/16
f 6/13/17 5/12/18 8/21/19 7/14/20
f 7/14/21 8/21/22 12/16/23 11/15/24
f 10/8/25 9/9/26 11/15/27 12/16/28
f 14/18/29 13/17/30 16/7/31 15/10/32
f 2/23/33 3/11/34 8/21/35 5/12/36
f 6/13/37 7/14/38 11/15/39 9/9/40
f 10/8/41 12/16/42 16/7/43 13/17/44
f 14/18/45 15/10/46 4/6/47 1/1/48
f 3/11/49 16/19/50 12/20/51 8/21/52
f 13/22/53 2/23/54 5/12/55 10/24/56
